<svg xmlns="http://www.w3.org/2000/svg" viewBox="0 0 104.03 93"><defs><style>.cls-1{fill:none;stroke:#fff;stroke-miterlimit:10;stroke-width:3px;}</style></defs><g id="レイヤー_2" data-name="レイヤー 2"><g id="レイヤー_1-2" data-name="レイヤー 1"><path class="cls-1" d="M49.44,8c-1.69,0-5.18-5.87-6-4.38s8,6.23,7.17,7.72S41,8.06,40.24,9.55s8,6.23,7.16,7.72S37.82,14,37,15.51s8,6.24,7.17,7.73S34.6,20,33.79,21.48s8,6.23,7.17,7.72S31.38,26,30.57,27.44s8,6.24,7.17,7.73-9.58-3.25-10.39-1.76,8,6.23,7.17,7.72-9.58-3.26-10.39-1.77,8,6.24,7.17,7.73-9.58-3.25-10.39-1.76,8,6.23,7.17,7.72S18.5,49.8,17.69,51.29s8,6.24,7.17,7.73-9.59-3.25-10.39-1.76,8,6.23,7.16,7.73-9.58-3.25-10.39-1.76,8,6.24,7.17,7.73S8.82,67.71,8,69.2s8,6.23,7.17,7.73S5.6,73.68,4.79,75.17s8,6.24,7.17,7.73-9.59-3.25-10.4-1.75,6.18,1.34,7.06,2.79S6.05,91.5,7.75,91.5s1.71-10,3.42-10,1.7,10,3.41,10,1.71-10,3.41-10,1.71,10,3.42,10,1.71-10,3.41-10,1.71,10,3.42,10,1.71-10,3.41-10,1.71,10,3.42,10,1.71-10,3.41-10,1.71,10,3.42,10,1.71-10,3.41-10,1.71,10,3.42,10,1.7-10,3.41-10,1.71,10,3.41,10,1.71-10,3.42-10,1.71,10,3.41,10,1.71-10,3.42-10,1.71,10,3.41,10,1.71-10,3.42-10,1.71,10,3.42,10,1.71-10,3.42-10,1.7,10,3.41,10,1.71-10,3.42-10,1.71,10,3.42,10,1.71-10,3.42-10,1.71,10,3.42,10-1.77-5.87-1-7.37,7.75-1.69,6.85-3.18S93,84.62,92.11,83.13s7.64-6.65,6.73-8.15-9.43,3.68-10.34,2.19,7.64-6.66,6.74-8.15S85.8,72.69,84.9,71.2s7.63-6.65,6.73-8.14-9.44,3.67-10.34,2.18,7.63-6.66,6.73-8.15-9.44,3.67-10.34,2.18,7.64-6.65,6.73-8.14S75,54.8,74.08,53.31s7.63-6.65,6.73-8.14-9.44,3.67-10.34,2.18,7.63-6.65,6.73-8.14-9.44,3.67-10.34,2.18,7.64-6.66,6.73-8.15-9.44,3.67-10.34,2.18,7.64-6.65,6.73-8.15S60.54,31,59.64,29.45s7.64-6.65,6.73-8.15S56.93,25,56,23.48s7.63-6.65,6.73-8.14S53.32,19,52.42,17.51s7.63-6.65,6.73-8.15S49.71,13,48.81,11.54s6.32-9.18,4.77-10C52.24.85,51.19,8,49.44,8Z"/></g></g></svg>